<svg xmlns="http://www.w3.org/2000/svg" width="254" height="253" viewBox="0 0 254 253">
    <g fill="none" fill-rule="evenodd" transform="translate(2 1)">
        <circle cx="125.5" cy="126.5" r="125.5" fill="#D8D8D8" opacity=".25"/>
        <g stroke-linecap="round" stroke-width="3">
            <path stroke="#000" stroke-linejoin="round" d="M141.41 240.79h-32.598M152.275 219.927h-54.33" opacity=".5"/>
            <path stroke="#787878" d="M98.059 219.917l10.87 20.856M152.212 219.908l-10.87 20.856"/>
            <path stroke="#000" stroke-linejoin="round" d="M125.11.87v31.293M32.902 37.535L55.96 59.66M217.308 37.535L194.261 59.66M.152 126.045H32.75M250.069 126.045H217.47M190.306 126.045c.034-29.716-21.703-55.36-52.019-61.365-30.316-6.006-60.851 9.28-73.074 36.582-12.223 27.302-2.763 59.09 22.638 76.074 2.92 1.95 4.662 5.149 4.662 8.564v7.949c0 2.88 2.432 5.215 5.433 5.215h54.33c3 0 5.432-2.335 5.432-5.215v-7.96c0-3.415 1.741-6.614 4.662-8.564 17.508-11.661 27.946-30.823 27.936-51.28z" opacity=".5"/>
        </g>
    </g>
</svg>
