<svg xmlns="http://www.w3.org/2000/svg" width="251" height="251" viewBox="0 0 251 251">
    <g fill="none" fill-rule="evenodd">
        <circle cx="125.5" cy="125.5" r="125.5" fill="#D8D8D8" opacity=".25"/>
        <g stroke="#000" stroke-linecap="round" stroke-linejoin="round" stroke-width="3" opacity=".5">
            <path d="M60 43.32A6.22 6.22 0 1 0 68.21 34L47.1 11 25.8 34a6.22 6.22 0 1 0 8.32 9.23L17.35 64.48a6.21 6.21 0 1 0 8.88 8.68L12.91 90.19a6.22 6.22 0 0 0 4.39 10.62h59.61a6.22 6.22 0 0 0 4.37-10.64l-13-16.9A6.22 6.22 0 0 0 77 64.43L60 43.32zM46.05 100.81v15.13M215.16 157a6.92 6.92 0 1 0 9.17-10.36l-23.49-25.61-23.71 25.64A6.94 6.94 0 1 0 186.4 157l-18.67 23.61a6.91 6.91 0 1 0 9.88 9.65l-14.82 19a6.91 6.91 0 0 0 4.88 11.81H234a6.93 6.93 0 0 0 4.87-11.84l-14.49-18.81a6.92 6.92 0 0 0 9.73-9.84L215.16 157zM200.95 221.01V241M240.93 36C133.246 56.067 46.3 135.545 16.67 241"/>
            <path stroke-dasharray="20" d="M240.93 71.6C152.64 90.5 81.148 155.08 53.4 241"/>
            <path d="M154 158.57A213 213 0 0 0 95.82 241M240.93 112.88a203.78 203.78 0 0 0-19.56 6"/>
        </g>
    </g>
</svg>
