<svg xmlns="http://www.w3.org/2000/svg" width="251" height="251" viewBox="0 0 251 251">
    <g fill="none" fill-rule="evenodd">
        <circle cx="125.5" cy="125.5" r="125.5" fill="#D8D8D8" opacity=".25"/>
        <g stroke="#000" stroke-linecap="round" stroke-linejoin="round" stroke-width="3" opacity=".5" transform="translate(11 21)">
            <path d="M52.13 97.12c2.014 2.235 5.881 3.511 8.89 3.511a10.62 10.62 0 0 0 7.89-3.511l5.1-5.64a10.63 10.63 0 0 1 18.5 7.66l-.39 7.6a10.63 10.63 0 0 0 11.15 11.15l7.6-.39a10.63 10.63 0 0 1 7.67 18.5l-5.65 5.1a10.62 10.62 0 0 0 0 15.78l5.65 5.1a10.63 10.63 0 0 1-7.67 18.5l-7.6-.39a10.63 10.63 0 0 0-11.15 11.15l.39 7.6a10.63 10.63 0 0 1-18.5 7.66l-5.1-5.64a10.62 10.62 0 0 0-15.78 0l-5.1 5.64a10.63 10.63 0 0 1-18.5-7.66l.39-7.6a10.63 10.63 0 0 0-11.15-11.15l-7.6.39A10.63 10.63 0 0 1 3.51 162l5.64-5.1a10.62 10.62 0 0 0 0-15.78L3.51 136a10.63 10.63 0 0 1 7.66-18.5l7.6.39a10.63 10.63 0 0 0 11.15-11.15l-.39-7.6a10.63 10.63 0 0 1 18.5-7.66l4.1 5.64z"/>
            <circle cx="61.02" cy="148.99" r="24.41"/>
            <path d="M176.87 112.9a10.62 10.62 0 0 0-15.78 0l-5.1 5.65a10.63 10.63 0 0 1-18.5-7.67l.39-7.6a10.63 10.63 0 0 0-11.15-11.15l-7.6.39a10.63 10.63 0 0 1-7.67-18.5l5.65-5.1a10.62 10.62 0 0 0 0-15.78l-5.65-5.1a10.63 10.63 0 0 1 7.67-18.5l7.6.39a10.63 10.63 0 0 0 11.15-11.15l-.39-7.6a10.63 10.63 0 0 1 18.5-7.66l5.1 5.64a10.62 10.62 0 0 0 15.78 0l5.1-5.64a10.63 10.63 0 0 1 18.5 7.66l-.39 7.6a10.63 10.63 0 0 0 11.15 11.15l7.6-.39a10.63 10.63 0 0 1 7.66 18.5l-5.64 5.1a10.62 10.62 0 0 0 0 15.78l5.64 5.1a10.63 10.63 0 0 1-7.66 18.5l-7.6-.39a10.63 10.63 0 0 0-11.15 11.15l.39 7.6a10.63 10.63 0 0 1-18.5 7.67l-5.1-5.65z"/>
            <ellipse cx="168.98" cy="61.03" rx="24.41" ry="24.41"/>
        </g>
    </g>
</svg>
